<?xml version="1.0" encoding="UTF-8"?>
<!DOCTYPE svg PUBLIC "-//W3C//DTD SVG 1.1//EN" "http://www.w3.org/Graphics/SVG/1.1/DTD/svg11.dtd">
<!-- Creator: CorelDRAW 2017 -->
<svg xmlns="http://www.w3.org/2000/svg" xml:space="preserve" width="827px" height="709px" version="1.1" style="shape-rendering:geometricPrecision; text-rendering:geometricPrecision; image-rendering:optimizeQuality; fill-rule:evenodd; clip-rule:evenodd"
viewBox="0 0 827 709"
 xmlns:xlink="http://www.w3.org/1999/xlink">
 <defs>
  <style type="text/css">
   <![CDATA[
    .fil4 {fill:#256E82}
    .fil3 {fill:#287A90}
    .fil5 {fill:#2D6679}
    .fil2 {fill:#2E8BA5}
    .fil1 {fill:#329AB7}
    .fil0 {fill:#35A2C0}
   ]]>
  </style>
 </defs>
 <g id="Layer_x0020_1">
  <metadata id="CorelCorpID_0Corel-Layer"/>
  <path class="fil0" d="M414 120c0,9 1,18 1,26 0,8 0,16 1,23 7,1 15,2 23,4 8,2 16,5 23,8 7,3 12,6 16,8 4,2 6,4 11,3 5,0 13,-2 21,-4 8,-2 16,-5 24,-9 7,-3 14,-6 22,-9 7,-3 16,-7 23,-11 7,-4 14,-8 20,-13 6,-4 11,-9 15,-13 4,-4 7,-8 10,-11 2,-3 3,-6 4,-10 1,-3 1,-7 -1,-11 -1,-4 -4,-7 -11,-12 -6,-5 -16,-12 -25,-17 -9,-6 -18,-10 -27,-15 -9,-4 -17,-9 -27,-13 -10,-4 -21,-8 -32,-12 -12,-4 -24,-8 -35,-11 -11,-3 -21,-5 -32,-7 -11,-1 -23,-2 -33,-2 -10,0 -19,0 -27,2 -7,2 -13,5 -19,9 3,2 7,3 11,6 4,2 8,5 12,8 4,4 9,8 14,14 4,6 8,12 11,19 7,16 7,32 8,49z"/>
  <path class="fil1" d="M558 184c-8,4 -15,7 -22,10 -7,3 -14,5 -20,7 -6,2 -13,3 -19,5 2,8 5,15 6,24 2,8 3,18 4,26 0,9 0,16 1,21 1,4 4,5 8,7 4,1 8,3 13,6 5,2 11,6 17,9 7,3 14,7 21,11 8,4 15,8 23,11 7,4 15,7 22,10 7,3 15,6 23,9 8,3 15,5 23,7 7,2 14,4 21,6 7,2 15,3 22,4 8,1 15,2 22,2 7,0 13,0 17,0 5,0 8,-1 12,-3 4,-2 7,-6 11,-10 3,-5 7,-10 9,-18 2,-8 2,-17 2,-28 0,-11 -1,-23 -3,-34 -2,-11 -5,-22 -7,-32 -3,-10 -5,-19 -9,-29 -4,-9 -8,-19 -13,-29 -5,-10 -11,-19 -16,-26 -5,-7 -10,-13 -15,-18 -5,-5 -11,-11 -17,-15 -6,-5 -12,-8 -16,-11 -5,-3 -9,-4 -14,-6 -5,-1 -10,-3 -15,-3 -5,-1 -9,-1 -13,-1 0,7 0,13 -1,19 -1,6 -2,11 -4,16 -2,5 -6,9 -11,14 -5,5 -11,9 -17,14 -6,4 -13,8 -20,13 -8,4 -17,10 -25,14z"/>
  <path class="fil2" d="M582 327c-7,-3 -13,-5 -20,-9 -7,-3 -14,-7 -20,-10 -7,-3 -12,-7 -19,-10 -6,-3 -13,-6 -20,-10 -4,4 -8,7 -12,11 -4,4 -9,7 -15,10 -6,3 -12,6 -19,8 -7,3 -14,6 -19,8 -5,2 -9,5 -11,8 -2,4 -3,9 -4,15 0,7 0,14 0,22 0,7 0,14 0,22 0,8 1,18 1,27 0,10 0,19 1,28 0,9 1,17 3,25 1,8 3,16 6,25 3,8 6,17 9,25 3,8 6,16 9,23 3,7 7,14 12,20 5,6 10,12 15,17 5,5 9,9 15,12 5,4 12,7 18,9 6,2 13,3 21,3 8,0 18,0 27,-2 10,-2 19,-4 29,-7 10,-3 20,-6 30,-9 10,-4 21,-9 31,-13 10,-5 20,-9 30,-15 10,-5 21,-11 31,-17 10,-6 18,-12 26,-18 8,-6 16,-12 23,-18 7,-6 13,-12 20,-19 6,-7 13,-15 18,-22 5,-7 9,-14 11,-22 2,-8 3,-16 3,-25 0,-9 -1,-17 -2,-24 -1,-7 -3,-13 -6,-20 -3,-6 -8,-12 -11,-17 -3,-5 -6,-8 -8,-12 -2,1 -4,2 -7,4 -2,2 -5,4 -8,6 -3,2 -8,5 -12,6 -4,2 -9,3 -15,4 -7,1 -15,1 -23,0 -8,-1 -16,-2 -24,-4 -8,-2 -16,-3 -23,-5 -7,-2 -14,-4 -22,-6 -8,-3 -18,-6 -26,-9 -8,-3 -15,-6 -23,-9 -7,-3 -15,-7 -22,-10z"/>
  <path class="fil3" d="M435 533c-4,-12 -8,-23 -11,-36 -3,-12 -5,-26 -6,-38 -1,-12 -2,-22 -3,-36 -1,-14 -2,-31 -3,-47 -1,-15 -2,-29 -2,-42 -5,-2 -10,-4 -16,-6 -6,-2 -12,-4 -18,-7 -6,-2 -12,-5 -18,-8 -6,-3 -12,-6 -18,-9 -6,-3 -12,-6 -16,-7 -4,-1 -7,1 -13,3 -6,2 -14,5 -22,8 -8,3 -14,6 -22,9 -7,3 -15,7 -24,11 -9,4 -18,8 -27,13 -9,5 -17,10 -25,15 -8,5 -15,10 -22,15 -7,5 -14,11 -20,17 -6,6 -12,11 -18,17 -5,6 -10,13 -13,18 -3,5 -6,9 -7,15 -2,5 -3,12 -3,17 0,5 0,9 1,14 1,5 2,11 6,18 3,7 9,15 16,24 7,9 16,19 23,28 8,8 14,15 22,23 8,7 17,16 26,24 9,8 19,16 29,24 10,8 21,16 31,23 10,7 20,13 29,18 9,5 17,10 27,14 9,5 20,9 30,14 10,4 21,9 31,11 11,2 21,3 33,3 12,0 25,0 36,-2 10,-2 18,-4 25,-8 7,-4 15,-8 21,-13 6,-5 11,-10 16,-15 5,-5 9,-9 12,-12 3,-3 3,-6 4,-8 -8,-6 -16,-12 -23,-17 -7,-5 -14,-10 -19,-15 -6,-5 -11,-9 -16,-15 -5,-6 -11,-13 -16,-22 -5,-9 -11,-21 -15,-33z"/>
  <path class="fil4" d="M155 365c7,-5 15,-10 23,-15 8,-5 16,-9 24,-14 8,-5 18,-10 29,-15 11,-5 23,-11 34,-16 11,-5 22,-9 30,-13 9,-3 15,-6 22,-9 0,-8 0,-16 0,-24 0,-8 0,-17 0,-25 0,-8 0,-16 -1,-21 -1,-5 -3,-6 -6,-8 -3,-2 -8,-5 -13,-8 -6,-3 -13,-7 -20,-10 -8,-3 -16,-7 -24,-10 -8,-3 -16,-6 -24,-9 -8,-3 -15,-5 -22,-7 -7,-2 -14,-5 -20,-6 -7,-1 -13,-2 -21,-3 -8,0 -18,-1 -26,0 -8,1 -13,3 -18,6 -5,3 -10,6 -15,11 -6,5 -12,12 -18,19 -6,7 -10,15 -15,22 -5,8 -9,16 -14,25 -4,9 -8,18 -12,26 -3,9 -6,17 -9,25 -3,8 -6,17 -8,26 -2,8 -4,16 -6,23 -2,7 -4,14 -5,21 -1,7 -2,13 -2,20 0,7 0,14 1,21 1,6 2,12 4,17 2,5 4,9 8,15 4,5 11,11 17,17 6,5 12,9 19,12 7,4 14,7 19,9 5,2 7,2 10,2 1,-2 1,-4 2,-8 1,-4 2,-9 3,-15 1,-6 2,-12 4,-18 2,-6 5,-12 8,-17 3,-5 7,-10 11,-15 5,-5 10,-10 15,-15 5,-5 10,-9 17,-14z"/>
  <path class="fil5" d="M243 161c7,3 13,5 19,8 6,3 13,6 20,10 7,4 14,7 20,10 6,3 10,5 14,7 3,2 6,3 9,5 4,-2 9,-5 14,-8 5,-3 12,-6 19,-10 7,-3 14,-7 20,-9 6,-3 11,-5 14,-7 3,-2 6,-5 7,-8 1,-3 1,-8 1,-14 0,-6 0,-13 1,-21 0,-7 0,-14 0,-21 0,-7 -1,-15 -2,-21 -1,-7 -3,-12 -5,-16 -2,-4 -4,-7 -6,-10 -2,-3 -6,-7 -9,-9 -4,-3 -8,-5 -12,-7 -4,-2 -8,-3 -14,-4 -6,-1 -12,-2 -20,-1 -8,0 -17,1 -27,2 -10,1 -20,3 -31,6 -11,2 -21,5 -31,7 -10,3 -18,5 -26,8 -8,3 -17,5 -24,8 -8,3 -15,6 -21,9 -7,3 -13,6 -18,9 -6,3 -10,6 -15,9 -5,3 -9,6 -13,9 -4,3 -8,7 -11,10 -3,3 -6,6 -8,10 -2,4 -3,8 -3,13 -1,5 -1,11 -1,16 3,-2 7,-3 11,-5 4,-1 9,-3 14,-4 5,-1 9,-2 14,-3 5,-1 12,-1 19,0 7,0 15,1 22,3 7,1 13,3 19,5 6,2 13,4 20,6 7,2 15,5 21,8z"/>
 </g>
</svg>
